<?xml version="1.0" encoding="UTF-8"?>
<svg version="1.1" xmlns="http://www.w3.org/2000/svg" width="300" height="300">
<path d="M0 0 C71.84697945 -0.4635289 71.84697945 -0.4635289 102 3 C103.27085449 3.14453613 104.54170898 3.28907227 105.85107422 3.43798828 C161.30055711 10.03233611 228.0262795 25.12229196 264.66796875 71.28515625 C273.54982753 82.96244747 279.31498376 95.79199622 283 110 C283.21011719 110.73347656 283.42023438 111.46695313 283.63671875 112.22265625 C284.0625 114.0625 284.0625 114.0625 284 117 C280.13677917 121.07784421 276.27316438 122.20369536 270.79584599 122.58685398 C267.47272156 122.54552636 265.61798034 122.434419 262.8801688 120.50983131 C260.85133687 118.3047418 259.05815086 116.01204063 257.26646423 113.6103363 C255.81430059 111.84231004 254.35150335 110.08297667 252.87948704 108.33144474 C252.11267994 107.41570277 251.34587284 106.49996081 250.55582917 105.55646908 C238.21818425 91.23029449 226.76937867 80.54100643 207.39807987 78.76084995 C197.05166902 78.19921634 186.75557829 78.40732655 176.40966153 78.84370732 C170.18099622 79.06341013 163.95212347 79.05445399 157.72019958 79.07261658 C145.98548669 79.14011673 134.26440026 79.40494281 122.53479093 79.74587482 C113.16158098 80.01131604 103.79152289 80.1829376 94.4152832 80.28491211 C93.75046842 80.29217133 93.08565363 80.29943055 92.40069295 80.30690975 C89.06386019 80.34283443 85.72701429 80.37704314 82.39015687 80.41062176 C54.91804252 80.69203966 27.46437963 81.28075114 0 82 C0 54.94 0 27.88 0 0 Z " fill="#034C21" transform="translate(0,79)"/>
<path d="M0 0 C28.39134064 -0.33127761 56.78116783 -0.60800186 85.17396554 -0.76597994 C88.53313538 -0.78473841 91.89230112 -0.80415345 95.25146484 -0.82397461 C95.9201562 -0.82790927 96.58884756 -0.83184392 97.27780229 -0.83589781 C108.07643376 -0.90100058 118.87385582 -1.01917152 129.67177206 -1.15729194 C140.76851002 -1.29804073 151.86458473 -1.37985872 162.96216917 -1.41132742 C169.18906271 -1.43082327 175.41322251 -1.47637388 181.63923645 -1.58595085 C187.5104837 -1.68843827 193.37789546 -1.71904586 199.24995232 -1.69661522 C201.39459593 -1.70071286 203.53937929 -1.73016739 205.68324471 -1.78808212 C216.01353328 -2.05325295 223.90186115 -1.89082082 231.92914248 5.18216938 C234.52658585 7.72893836 236.97171461 10.3658022 239.34715366 13.12005794 C241.86407003 15.98279045 244.61867453 18.57845752 247.375 21.20703125 C248.32824344 22.14894529 249.27879373 23.09359308 250.2265625 24.04101562 C252.13243657 25.94554753 254.0436722 27.843392 255.9609375 29.73632812 C256.88132812 30.65478516 257.80171875 31.57324219 258.75 32.51953125 C259.56984375 33.33526611 260.3896875 34.15100098 261.234375 34.99145508 C263 37 263 37 263 39 C256.73 39 250.46 39 244 39 C243.67 40.32 243.34 41.64 243 43 C261.81 43 280.62 43 300 43 C300 44.98 300 46.96 300 49 C201 49 102 49 0 49 C0 32.83 0 16.66 0 0 Z M113 39 C113 40.32 113 41.64 113 43 C134.12 43 155.24 43 177 43 C176.505 41.02 176.505 41.02 176 39 C155.21 39 134.42 39 113 39 Z " fill="#007831" transform="translate(0,162)"/>
<path d="M0 0 C9.64476075 -0.13623256 19.08291218 0.13467208 28.6875 1.125 C30.59088135 1.32077637 30.59088135 1.32077637 32.53271484 1.52050781 C90.67557346 7.75523832 159.03112066 21.31847608 198.34130859 68.61376953 C207.93220815 80.69682038 214.1254319 94.06115722 218 109 C218.21011719 109.73347656 218.42023438 110.46695313 218.63671875 111.22265625 C219.0625 113.0625 219.0625 113.0625 219 116 C215.12195051 120.09349668 211.24241115 121.20629068 205.74584961 121.59350586 C202.46408484 121.55280404 200.66027782 121.50807415 198.03640747 119.48904419 C196.22189106 117.24360141 194.64461696 114.92116424 193.06640625 112.50390625 C177.37197046 91.27091519 177.37197046 91.27091519 154.18593502 80.40805721 C143.04310064 78.79678594 131.79499492 78.78510814 120.5625 79.0625 C119.24828505 79.09464033 119.24828505 79.09464033 117.90752029 79.12742996 C106.89939578 79.42712239 95.99457989 80.16942354 85 81 C84.67 64.5 84.34 48 84 31 C80.37 30.67 76.74 30.34 73 30 C70.7109375 28.06640625 70.7109375 28.06640625 69.375 25.5625 C63.79186109 15.71043542 63.79186109 15.71043542 54.96484375 9.3046875 C52.82816957 9.24521744 51.08052959 9.51139078 49 10 C47.7625 10.23976563 47.7625 10.23976563 46.5 10.484375 C44.31514873 10.93500057 42.15904465 11.44024768 40 12 C40.65226562 12.56847656 41.30453125 13.13695313 41.9765625 13.72265625 C47.05962811 18.21344725 51.83785531 22.63302395 56 28 C56 28.66 56 29.32 56 30 C51.49175133 30.70956537 47.49531058 30.87449758 43 30 C39.85387406 27.65008924 37.38614355 24.93948307 34.796875 22.01953125 C26.58186308 12.80531752 15.0722865 7.85673806 4 3 C2.6611259 2.34453194 1.32463403 1.68378864 0 1 C0 0.67 0 0.34 0 0 Z " fill="#007831" transform="translate(65,80)"/>
<path d="M0 0 C49.17 0 98.34 0 149 0 C148.67 1.65 148.34 3.3 148 5 C147.12601563 5.03738281 146.25203125 5.07476562 145.3515625 5.11328125 C115.83016416 6.69146921 82.59714221 15.40285779 61 37 C78.16 37.33 95.32 37.66 113 38 C113 39.65 113 41.3 113 43 C110.63680263 44.18159868 109.22566527 44.12575394 106.5901947 44.12698364 C105.19990303 44.13121338 105.19990303 44.13121338 103.78152466 44.13552856 C102.76170502 44.13350433 101.74188538 44.1314801 100.69116211 44.12939453 C99.08379433 44.13202301 99.08379433 44.13202301 97.44395447 44.13470459 C93.88840127 44.13911965 90.33289748 44.13618652 86.77734375 44.1328125 C84.31637055 44.13348559 81.85539741 44.13445565 79.39442444 44.13571167 C74.23193734 44.13718813 69.06946752 44.13503554 63.90698242 44.13037109 C57.27302903 44.12467086 50.63911606 44.12795501 44.00516415 44.13394356 C38.92244662 44.137548 33.83973876 44.13641117 28.75702095 44.13381577 C26.31006427 44.13314633 23.86310672 44.1339755 21.41615105 44.13629532 C18.00389131 44.13882026 14.59169811 44.13498363 11.17944336 44.12939453 C9.64667755 44.13243088 9.64667755 44.13243088 8.08294678 44.13552856 C7.15890549 44.13270874 6.2348642 44.12988892 5.28282166 44.12698364 C4.47516326 44.12660662 3.66750486 44.12622959 2.83537197 44.12584114 C1 44 1 44 0 43 C0 28.81 0 14.62 0 0 Z " fill="#073B1D" transform="translate(0,162)"/>
<path d="M0 0 C0.68850037 0.42254059 1.37700073 0.84508118 2.08636475 1.28042603 C15.11227261 9.36129571 26.36634061 18.99611649 37 30 C36.505 30.99 36.505 30.99 36 32 C23.10927745 32.0231211 10.2185598 32.04091389 -2.67217922 32.05181217 C-8.65719266 32.05704151 -14.64219196 32.06414008 -20.62719727 32.07543945 C-26.39783429 32.08626653 -32.16845768 32.09227645 -37.93910408 32.09487724 C-40.14602943 32.09673182 -42.352954 32.10035304 -44.55987358 32.10573006 C-47.63946041 32.1129381 -50.71899014 32.11399104 -53.79858398 32.11352539 C-54.72071182 32.11712067 -55.64283966 32.12071594 -56.59291077 32.12442017 C-62.88594784 32.11405216 -62.88594784 32.11405216 -64 31 C-64.11336626 28.35713726 -64.16417761 25.74138544 -64.16796875 23.09765625 C-64.17129715 22.30475693 -64.17462555 21.5118576 -64.17805481 20.69493103 C-64.18312726 19.01448142 -64.18546304 17.33402171 -64.18530273 15.65356445 C-64.18748786 13.07681741 -64.20563609 10.50049924 -64.22460938 7.92382812 C-64.22754345 6.2942723 -64.22952815 4.66471444 -64.23046875 3.03515625 C-64.23765427 2.26115982 -64.24483978 1.48716339 -64.25224304 0.68971252 C-64.22882253 -4.77117747 -64.22882253 -4.77117747 -62 -7 C-60.16551208 -7.33230591 -60.16551208 -7.33230591 -57.91186523 -7.44580078 C-57.06595322 -7.491492 -56.2200412 -7.53718323 -55.34849548 -7.58425903 C-53.96749413 -7.6392305 -53.96749413 -7.6392305 -52.55859375 -7.6953125 C-51.60292007 -7.73365204 -50.6472464 -7.77199158 -49.66261292 -7.81149292 C-47.62758421 -7.88625992 -45.59231757 -7.954767 -43.55688477 -8.01757812 C-41.50341665 -8.08829316 -39.45048457 -8.17733632 -37.39868164 -8.28613281 C-22.93892763 -9.05180808 -12.40595038 -7.67483988 0 0 Z " fill="#024E22" transform="translate(225,117)"/>
<path d="M0 0 C0.77408203 0.02271973 1.54816406 0.04543945 2.34570312 0.06884766 C9.88707763 0.42934867 22.00960384 1.13460384 27.5625 6.6875 C25.5825 7.0175 23.6025 7.3475 21.5625 7.6875 C21.2325 9.6675 20.9025 11.6475 20.5625 13.6875 C17.9225 13.3575 15.2825 13.0275 12.5625 12.6875 C9.5925 17.1425 9.5925 17.1425 6.5625 21.6875 C3.625 20.875 3.625 20.875 0.5625 19.6875 C-0.4375 16.6875 -0.4375 16.6875 0.55859375 14.42578125 C1.03425781 13.62527344 1.50992187 12.82476562 2 12 C2.47308594 11.19175781 2.94617188 10.38351563 3.43359375 9.55078125 C3.99240234 8.62845703 3.99240234 8.62845703 4.5625 7.6875 C2.0875 7.1925 2.0875 7.1925 -0.4375 6.6875 C-2.0875 9.6575 -3.7375 12.6275 -5.4375 15.6875 C-6.4275 15.3575 -7.4175 15.0275 -8.4375 14.6875 C-8.251875 15.63625 -8.06625 16.585 -7.875 17.5625 C-7.4375 20.6875 -7.4375 20.6875 -8.4375 22.6875 C-8.96731019 26.66107645 -8.75631474 28.22920381 -6.4375 31.5625 C-3.12790524 33.90679629 -1.35572974 34.5392243 2.625 34.328125 C6.27127203 33.1225028 7.83711278 29.9391913 9.5625 26.6875 C11.5425 27.3475 13.5225 28.0075 15.5625 28.6875 C14.67473998 32.38650008 13.61668136 36.03300461 12.5625 39.6875 C13.8825 40.3475 15.2025 41.0075 16.5625 41.6875 C16.85125 40.553125 17.14 39.41875 17.4375 38.25 C17.80875 37.074375 18.18 35.89875 18.5625 34.6875 C19.2225 34.3575 19.8825 34.0275 20.5625 33.6875 C20.61148438 34.43515625 20.66046875 35.1828125 20.7109375 35.953125 C20.78570312 36.93796875 20.86046875 37.9228125 20.9375 38.9375 C21.04191406 40.39929688 21.04191406 40.39929688 21.1484375 41.890625 C21.54715249 44.58383189 22.19757063 46.35713279 23.5625 48.6875 C23.14097656 49.16960937 22.71945313 49.65171875 22.28515625 50.1484375 C21.73730469 50.78007812 21.18945312 51.41171875 20.625 52.0625 C20.07972656 52.68898437 19.53445312 53.31546875 18.97265625 53.9609375 C17.49291376 55.64382334 17.49291376 55.64382334 16.5625 57.6875 C6.0025 57.6875 -4.5575 57.6875 -15.4375 57.6875 C-15.59850152 50.69287862 -15.73774437 43.70471725 -15.82202148 36.7097168 C-15.85715856 34.33221624 -15.90487953 31.95486623 -15.96557617 29.57788086 C-16.05078709 26.154407 -16.09025737 22.73293693 -16.12109375 19.30859375 C-16.15722275 18.25103378 -16.19335175 17.19347382 -16.23057556 16.10386658 C-16.23340406 10.75141081 -15.92004572 7.49209939 -12.1484375 3.51269531 C-8.31380488 0.07134174 -5.00676972 -0.29458028 0 0 Z " fill="#007731" transform="translate(15.4375,103.3125)"/>
<path d="M0 0 C7.30228143 2.35325675 14.15490867 5.44478474 20.9375 9 C21.55222168 9.3199292 22.16694336 9.6398584 22.80029297 9.96948242 C33.28483952 15.64086401 33.28483952 15.64086401 34.64477539 20.12695312 C34.99358941 22.70137203 35.08592408 25.15231692 35.0625 27.75 C35.06233887 28.64364258 35.06217773 29.53728516 35.06201172 30.45800781 C34.85470034 34.76346306 34.51511907 38.0101165 31.59765625 41.3125 C24.66145833 47 24.66145833 47 21 47 C21.00785522 46.16976318 21.00785522 46.16976318 21.01586914 45.32275391 C21.23965992 31.12253573 21.23965992 31.12253573 20 17 C18.13626112 15.13626112 15.45500356 15.8282488 12.96704102 15.75976562 C2.78382982 15.46884481 -6.22605817 13.84332853 -16 11 C-23.29636045 8.97821623 -33.83276613 7.96096831 -40.73828125 11.33984375 C-42.84377844 13.09287022 -42.84377844 13.09287022 -45 16 C-45.13517903 13.24835568 -45.23415251 10.50335479 -45.3125 7.75 C-45.35439453 6.97269531 -45.39628906 6.19539063 -45.43945312 5.39453125 C-45.52548145 1.36840587 -45.53837605 -0.36765285 -42.8515625 -3.5234375 C-31.47894904 -9.41227023 -11.70582346 -3.27934153 0 0 Z " fill="#073B1D" transform="translate(45,95)"/>
<path d="M0 0 C20.79 0 41.58 0 63 0 C60.06792248 2.93207752 57.74534068 5.0181356 54.375 7.25 C53.59898438 7.77078125 52.82296875 8.2915625 52.0234375 8.828125 C50 10 50 10 48 10 C48 10.66 48 11.32 48 12 C48.9590625 11.87625 48.9590625 11.87625 49.9375 11.75 C54.47710759 12.12058021 57.93690809 14.01285942 62 16 C62.60908203 16.2897168 63.21816406 16.57943359 63.84570312 16.87792969 C71.74910579 20.63798692 79.29820686 24.27555169 86 30 C86 30.33 86 30.66 86 31 C82.97473081 32.30721508 80.30775198 32.99034233 77 33 C74.10131777 31.64278754 71.68768903 29.92960339 69.078125 28.078125 C51.35928396 16.11565872 26.29061781 9.65607877 5 12 C2.525 13.485 2.525 13.485 0 15 C0 10.05 0 5.1 0 0 Z " fill="#007731" transform="translate(0,79)"/>
<path d="M0 0 C46.53 0 93.06 0 141 0 C140.34 1.98 139.68 3.96 139 6 C121.46729005 6.07005768 103.93462374 6.12297224 86.40180588 6.15543652 C78.26114983 6.17091039 70.12058072 6.1920098 61.97998047 6.22631836 C54.88525404 6.25620485 47.79059056 6.27557122 40.69580293 6.28226548 C36.93857929 6.28617904 33.18153577 6.29538707 29.42436981 6.31719017 C25.2317249 6.3413234 21.03939381 6.34197048 16.84667969 6.34057617 C15.59871109 6.351362 14.35074249 6.36214783 13.06495667 6.3732605 C11.92354721 6.36913651 10.78213776 6.36501251 9.60614014 6.36076355 C8.11836626 6.36491162 8.11836626 6.36491162 6.60053635 6.36914349 C3.554422 5.93675066 2.15678401 5.17683505 0 3 C0 2.01 0 1.02 0 0 Z " fill="#007932" transform="translate(69,224)"/>
<path d="M0 0 C54.45 0 108.9 0 165 0 C164 3 164 3 161 5 C158.19010258 5.25447559 158.19010258 5.25447559 154.70582581 5.26069641 C153.38646027 5.26778122 152.06709473 5.27486603 150.70774841 5.28216553 C149.24209561 5.27987161 147.77644312 5.2773619 146.31079102 5.2746582 C144.7700577 5.27900453 143.22932655 5.28418741 141.68859863 5.29014587 C137.50060046 5.30355578 133.31269241 5.30411234 129.12467694 5.30158257 C125.63052451 5.30051421 122.13639041 5.30539279 118.6422419 5.310188 C110.40007119 5.32129008 102.15794605 5.32171666 93.91577148 5.31567383 C85.40823035 5.30963242 76.90085453 5.32194764 68.3933416 5.3432439 C61.09305597 5.36084736 53.79282302 5.36686324 46.49251693 5.36360615 C42.13062703 5.36179114 37.76885505 5.36445116 33.40698433 5.37832069 C29.3054279 5.39087406 25.20412957 5.38897873 21.10257721 5.37590981 C19.59651287 5.37353901 18.09043051 5.37629668 16.58438683 5.38453293 C14.52967575 5.39496019 12.47583719 5.38693334 10.42115784 5.3742218 C9.27096948 5.37438954 8.12078112 5.37455729 6.93573856 5.37473011 C3.7026704 4.96204759 2.28721971 4.29141666 0 2 C0 1.34 0 0.68 0 0 Z " fill="#007932" transform="translate(57,215)"/>
<path d="M0 0 C9.57 0 19.14 0 29 0 C27.78191829 3.04520426 26.66422556 5.77966118 25.16015625 8.63671875 C20.08887177 18.41713903 16.57203025 26.99578828 15 38 C10.05 38 5.1 38 0 38 C0 25.46 0 12.92 0 0 Z " fill="#007831" transform="translate(0,162)"/>
<path d="M0 0 C14.88517167 5.1939362 34.11542189 13.71067166 42.34301758 28.03100586 C42.56086914 28.58143555 42.7787207 29.13186523 43.00317383 29.69897461 C27.94345734 31.25525011 19.25640778 28.82470906 7.0012207 20.05151367 C1.71648692 16.47411568 -3.8825434 14.23230709 -9.99682617 12.44897461 C-11.13120117 12.11381836 -12.26557617 11.77866211 -13.43432617 11.43334961 C-14.27995117 11.19100586 -15.12557617 10.94866211 -15.99682617 10.69897461 C-15.99682617 10.03897461 -15.99682617 9.37897461 -15.99682617 8.69897461 C-13.77760527 7.02862519 -11.57859612 5.50815631 -9.24682617 4.01147461 C-8.61260742 3.58286133 -7.97838867 3.15424805 -7.32495117 2.71264648 C-2.53963506 -0.38285488 -2.53963506 -0.38285488 0 0 Z " fill="#073B1D" transform="translate(63.996826171875,80.301025390625)"/>
<path d="M0 0 C-3.13440177 3.18673872 -6.34105049 6.25047113 -9.65576172 9.24853516 C-18.91032981 17.63574319 -28.33950063 26.67900126 -34 38 C-32.02 38 -30.04 38 -28 38 C-28.99 39.98 -29.98 41.96 -31 44 C-36.94 44 -42.88 44 -49 44 C-48.67 41.69 -48.34 39.38 -48 37 C-46.35 37 -44.7 37 -43 37 C-42.443125 35.88882813 -41.88625 34.77765625 -41.3125 33.6328125 C-37.44140231 26.03509934 -33.6771384 18.72705635 -27.99609375 12.29296875 C-25.91043072 9.99218257 -25.91043072 9.99218257 -24.09765625 7.17578125 C-17.4686944 -1.9469935 -10.34728238 -1.06917958 0 0 Z " fill="#073C1D" transform="translate(75,162)"/>
<path d="M0 0 C37.95 0 75.9 0 115 0 C114.34 1.65 113.68 3.3 113 5 C98.85728469 5.0700808 84.71459631 5.12278414 70.57174301 5.15543652 C64.00496151 5.17110635 57.43829649 5.19236894 50.87158203 5.22631836 C44.53682558 5.2588644 38.20218131 5.27684308 31.86734772 5.28463173 C29.44797245 5.29018376 27.02860346 5.30102522 24.60927582 5.31719017 C21.22603485 5.33890081 17.84326012 5.34196954 14.45996094 5.34057617 C13.45511154 5.351362 12.45026215 5.36214783 11.41496277 5.3732605 C10.49232132 5.36913651 9.56967987 5.36501251 8.61907959 5.36076355 C7.81896328 5.36352893 7.01884697 5.36629431 6.19448471 5.36914349 C3.43291151 4.90460766 2.02888076 3.89982487 0 2 C0 1.34 0 0.68 0 0 Z " fill="#007932" transform="translate(80,234)"/>
<path d="M0 0 C1.79244141 0.05414063 1.79244141 0.05414063 3.62109375 0.109375 C6.54250415 0.20286013 9.45698148 0.33373114 12.375 0.5 C8.75906114 3.3174087 4.92979644 5.27468319 0.8125 7.25 C-10.88007443 13.00051141 -22.22765333 19.76018358 -31.3125 29.265625 C-32.625 30.5 -32.625 30.5 -34.625 30.5 C-34.8725 31.0775 -35.12 31.655 -35.375 32.25 C-36.8817975 34.96223549 -38.13743613 36.61751924 -40.625 38.5 C-44.375 38.75 -44.375 38.75 -47.625 38.5 C-46.12893783 33.9864565 -43.62027832 30.54871746 -40.6875 26.875 C-40.20095947 26.26253418 -39.71441895 25.65006836 -39.21313477 25.01904297 C-34.90407556 19.68626164 -30.35848414 14.55443529 -25.25097656 9.96386719 C-23.97928547 8.81896332 -22.74974503 7.62720246 -21.53808594 6.41894531 C-14.58611478 0.0267506 -9.22326701 -0.53468215 0 0 Z " fill="#007631" transform="translate(88.625,161.5)"/>
<path d="M0 0 C1.66137037 0.04026777 3.32283708 0.07674464 4.984375 0.109375 C8.99203532 0.19612531 12.99490033 0.33333452 17 0.5 C17 2.15 17 3.8 17 5.5 C16.05640625 5.67015625 15.1128125 5.8403125 14.140625 6.015625 C12.21476562 6.37914062 12.21476562 6.37914062 10.25 6.75 C8.99703125 6.98203125 7.7440625 7.2140625 6.453125 7.453125 C2.9558925 8.17451998 -0.22594536 9.32978459 -3.5625 10.59375 C-10.79904511 13.06983056 -17.67361307 12.94797594 -25.25 12.75 C-26.59242079 12.7298718 -27.93487126 12.71163237 -29.27734375 12.6953125 C-32.51901162 12.6486698 -35.75910056 12.58323132 -39 12.5 C-28.49783675 0.80022164 -14.72351354 -0.63185929 0 0 Z " fill="#007631" transform="translate(118,148.5)"/>
<path d="M0 0 C22.11 0 44.22 0 67 0 C67.495 1.485 67.495 1.485 68 3 C66.88075256 4.47673035 66.88075256 4.47673035 65 6 C62.26097107 6.3742218 62.26097107 6.3742218 58.90795898 6.37231445 C57.65333359 6.37854324 56.39870819 6.38477203 55.10606384 6.39118958 C53.73606977 6.38250242 52.36607957 6.37318454 50.99609375 6.36328125 C49.59269715 6.36276262 48.18929981 6.36328042 46.78590393 6.36479187 C43.8461725 6.36470218 40.90671551 6.35427871 37.96704102 6.33618164 C34.19503252 6.31347342 30.4234243 6.31295439 26.65136623 6.31969929 C23.75434294 6.32303694 20.85741128 6.31641344 17.96040535 6.30657005 C16.56931093 6.30271578 15.17820632 6.30157078 13.78710747 6.3031559 C11.84559727 6.30352583 9.9041004 6.28944555 7.96264648 6.2746582 C6.30409889 6.26774712 6.30409889 6.26774712 4.61204529 6.26069641 C2 6 2 6 0 4 C0 2.68 0 1.36 0 0 Z " fill="#095227" transform="translate(176,200)"/>
<path d="M0 0 C3.7893161 0.0649597 5.48590434 1.34041481 8.1875 3.9375 C19.125 16.08787129 19.125 16.08787129 19.125 21.5625 C7.02391451 23.49668989 7.02391451 23.49668989 2.33349609 20.3671875 C-1.01490803 17.30444318 -3.74127266 13.78409926 -6.49658203 10.19384766 C-8.68078112 7.6088639 -11.21094459 5.63975906 -13.875 3.5625 C-9.43496494 1.00094131 -5.00091112 0.72593871 0 0 Z " fill="#073C1D" transform="translate(117.875,88.4375)"/>
<path d="M0 0 C1.19009674 0.03210068 2.38019348 0.06420135 3.60635376 0.09727478 C7.39834797 0.20722758 11.18641508 0.36659767 14.9765625 0.52734375 C17.55067758 0.61068773 20.12489935 0.69080362 22.69921875 0.76757812 C29.00171618 0.96259288 35.30171198 1.19817658 41.6015625 1.46484375 C41.6015625 3.11484375 41.6015625 4.76484375 41.6015625 6.46484375 C38.96441154 7.78341923 37.0032361 7.58476079 34.05029297 7.57836914 C32.88924042 7.57829361 31.72818787 7.57821808 30.5319519 7.57814026 C29.27359528 7.57297897 28.01523865 7.56781769 26.71875 7.5625 C25.43420929 7.56108505 24.14966858 7.5596701 22.82620239 7.55821228 C19.40999408 7.55439286 15.99382824 7.54456748 12.57763672 7.5335083 C9.09212824 7.52328182 5.6066129 7.51871201 2.12109375 7.51367188 C-4.71876745 7.50294471 -11.55860044 7.48587517 -18.3984375 7.46484375 C-13.77263301 -0.52914225 -8.67318709 -0.43736896 0 0 Z " fill="#095227" transform="translate(71.3984375,198.53515625)"/>
<path d="M0 0 C4.62 0 9.24 0 14 0 C14 3.96 14 7.92 14 12 C0.47 12 -13.06 12 -27 12 C-24.35979476 9.35979476 -21.51314583 8.84317585 -18 7.9375 C-17.33025146 7.7612207 -16.66050293 7.58494141 -15.97045898 7.40332031 C-10.67962072 6.06142726 -5.45973575 5.25692874 0 5 C0 3.35 0 1.7 0 0 Z " fill="#073B1D" transform="translate(135,149)"/>
<path d="M0 0 C0.59885088 4.79746094 0.85454161 9.22400363 0 14 C-2.2368272 16.57213068 -4.37421147 17.8963622 -7.3515625 19.53515625 C-9.90556961 20.9477708 -11.45087505 22.33943023 -13.4375 24.4375 C-16.49749018 27.2106161 -18.85416671 27.36979167 -22.9375 27.375 C-24.62692628 27.2795008 -26.31588697 27.16445227 -28 27 C-24.74398072 21.74027655 -21.20286882 16.23747204 -15.25 13.9375 C-14.5075 13.628125 -13.765 13.31875 -13 13 C-12.71640625 12.24460938 -12.4328125 11.48921875 -12.140625 10.7109375 C-10.77938645 7.47566506 -9.14517293 5.96767342 -6.5 3.6875 C-5.7059375 2.99011719 -4.911875 2.29273438 -4.09375 1.57421875 C-2 0 -2 0 0 0 Z " fill="#007631" transform="translate(78,134)"/>
<path d="M0 0 C2.56640625 0.35546875 2.56640625 0.35546875 4.4375 0.8125 C1.35890055 5.09221969 -1.80557317 9.1117747 -5.4375 12.9375 C-10.58168881 18.61384628 -13.92881771 25.11003561 -17.5625 31.8125 C-18.88477736 34.15235602 -20.22266807 36.48261528 -21.5625 38.8125 C-22.8825 38.8125 -24.2025 38.8125 -25.5625 38.8125 C-24.74349346 29.70105228 -18.97503315 21.6175677 -14.5625 13.8125 C-13.97275391 12.74854004 -13.97275391 12.74854004 -13.37109375 11.66308594 C-6.81115391 0.05747809 -6.81115391 0.05747809 0 0 Z " fill="#007530" transform="translate(53.5625,161.1875)"/>
<path d="M0 0 C-2.02375409 2.17520724 -3.90283925 3.64661618 -6.5390625 5.0078125 C-7.20164062 5.35457031 -7.86421875 5.70132813 -8.546875 6.05859375 C-9.23265625 6.41050781 -9.9184375 6.76242188 -10.625 7.125 C-15.09652766 9.17288601 -15.09652766 9.17288601 -19 12 C-20.34267413 12.08631874 -21.68974322 12.10706473 -23.03515625 12.09765625 C-23.84404297 12.09443359 -24.65292969 12.09121094 -25.48632812 12.08789062 C-26.33646484 12.07951172 -27.18660156 12.07113281 -28.0625 12.0625 C-28.91650391 12.05798828 -29.77050781 12.05347656 -30.65039062 12.04882812 C-32.76695663 12.03700373 -34.88348685 12.01906769 -37 12 C-26.01880029 -2.16127565 -16.94217557 -2.00875867 0 0 Z " fill="#073C1D" transform="translate(98,149)"/>
<path d="M0 0 C-4.49924408 9.24844616 -4.49924408 9.24844616 -9 12 C-14.92875581 13.02530481 -21.03603819 12.45439709 -27 12 C-21.87109468 -1.74831565 -13.05766535 -0.87051102 0 0 Z " fill="#073B1D" transform="translate(59,149)"/>
<path d="M0 0 C0.33 0 0.66 0 1 0 C1 4.29 1 8.58 1 13 C-1.47923801 13.02685095 -3.9581884 13.04676547 -6.4375 13.0625 C-7.14455078 13.07087891 -7.85160156 13.07925781 -8.58007812 13.08789062 C-10.38693559 13.09653588 -12.19387603 13.05220011 -14 13 C-14.33 12.67 -14.66 12.34 -15 12 C-15 10.35 -15 8.7 -15 7 C-10.05 7 -5.1 7 0 7 C0 4.69 0 2.38 0 0 Z " fill="#095226" transform="translate(15,193)"/>
<path d="M0 0 C2.96175123 0.61277612 4.38058783 1.25372522 7 3 C6.34 4.65 5.68 6.3 5 8 C3.35 7.67 1.7 7.34 0 7 C-1.125 2.25 -1.125 2.25 0 0 Z " fill="#016F2E" transform="translate(13,124)"/>
<path d="M0 0 C2.31 0.33 4.62 0.66 7 1 C6.01 2.98 5.02 4.96 4 7 C1.69 7 -0.62 7 -3 7 C-1.125 2.25 -1.125 2.25 0 0 Z " fill="#095126" transform="translate(40,199)"/>
<path d="M0 0 C1.32 0.33 2.64 0.66 4 1 C5.125 5.75 5.125 5.75 4 8 C2.02 7.34 0.04 6.68 -2 6 C-1.49396008 3.83125748 -1.00016187 2.00032373 0 0 Z " fill="#007330" transform="translate(29,122)"/>
<path d="M0 0 C1.65 0.33 3.3 0.66 5 1 C4.34 2.98 3.68 4.96 3 7 C1.68 7 0.36 7 -1 7 C-0.67 4.69 -0.34 2.38 0 0 Z " fill="#095026" transform="translate(27,199)"/>
</svg>
